#!OML:ASF G:\JayActor3\Patient Classification 1\Patient 1\Session 5\male.ASF
:FULLY-SPECIFIED
:DEGREES
1259
root -56.7161 14.6129 -5.87408 396.712 87.3915 746.733
lowerback 31.3443 -0.856095 -0.20748
upperback 7.7092 -0.597382 -1.82109
thorax -8.45654 0.0284389 -1.76134
lowerneck -5.01436 -0.234068 2.39796
upperneck -6.84443 -0.267321 -0.0593606
head -1.27953 -0.127844 -0.415715
rclavicle 1.0138e-014 1.09332e-014
rhumerus -23.3777 5.87445 -86.8158
rradius 50.6299
rwrist -4.18509
rhand -20.3597 -8.11733
rfingers 7.12502
rthumb 5.99259 -38.0126
lclavicle 1.0138e-014 1.09332e-014
lhumerus -21.7908 -7.27619 83.6151
lradius 42.3354
lwrist 25.4761
lhand -17.469 16.1276
lfingers 7.12502
lthumb 8.78279 45.9249
rfemur -63.7257 -0.350665 15.5014
rtibia 106.998
rfoot -8.425 -11.3882
rtoes -15.6267
lfemur -48.6366 -0.517041 -29.1721
ltibia 70.8037
lfoot -31.1408 8.80167
ltoes -0.285954
1260
root -56.7799 14.6098 -5.86335 397.607 87.3772 747.583
lowerback 31.296 -0.831414 -0.258219
upperback 7.68958 -0.586413 -1.83994
thorax -8.45539 0.0330721 -1.75701
lowerneck -4.9673 -0.235808 2.38962
upperneck -6.87593 -0.266546 -0.0352587
head -1.29715 -0.12771 -0.406999
rclavicle 4.37326e-015 1.80894e-014
rhumerus -23.337 5.90726 -86.8415
rradius 50.5889
rwrist -4.19875
rhand -20.3633 -8.16046
rfingers 7.12502
rthumb 5.98907 -38.0558
lclavicle 4.37326e-015 1.80894e-014
lhumerus -21.7718 -7.33264 83.6204
lradius 42.4557
lwrist 25.5297
lhand -17.4982 15.9747
lfingers 7.12502
lthumb 8.75456 45.7731
rfemur -63.0369 -0.625819 15.5686
rtibia 107.324
rfoot -7.86694 -11.4632
rtoes -15.7081
lfemur -48.9827 -0.60377 -29.1443
ltibia 70.81
lfoot -30.8133 8.8207
ltoes -0.329315
1261
root -56.8429 14.6079 -5.85246 398.506 87.3613 748.44
lowerback 31.2314 -0.80715 -0.308019
upperback 7.67934 -0.57448 -1.85698
thorax -8.43575 0.0384772 -1.75131
lowerneck -4.93941 -0.237709 2.38188
upperneck -6.88993 -0.267024 -0.0158011
head -1.30612 -0.128094 -0.399759
rclavicle -1.31198e-014 -2.64384e-014
rhumerus -23.2793 5.94446 -86.8626
rradius 50.5398
rwrist -4.21413
rhand -20.363 -8.19192
rfingers 7.12502
rthumb 5.98933 -38.0873
lclavicle -1.31198e-014 -2.64384e-014
lhumerus -21.7108 -7.38401 83.6324
lradius 42.5397
lwrist 25.569
lhand -17.5241 15.8317
lfingers 7.12502
lthumb 8.72965 45.6312
rfemur -62.3336 -0.889821 15.6309
rtibia 107.541
rfoot -7.30212 -11.531
rtoes -15.7908
lfemur -49.3146 -0.67432 -29.1189
ltibia 70.806
lfoot -30.4718 8.82553
ltoes -0.407303
1262
root -56.9053 14.607 -5.84151 399.631 87.3389 749.518
lowerback 31.1433 -0.783895 -0.367343
upperback 7.67594 -0.565946 -1.87325
thorax -8.39718 0.0425782 -1.73764
lowerneck -4.94121 -0.235459 2.38068
upperneck -6.87567 -0.264382 -0.0161924
head -1.30129 -0.126731 -0.399636
rclavicle -3.18055e-015 1.70955e-014
rhumerus -23.2075 5.99654 -86.8775
rradius 50.486
rwrist -4.22644
rhand -20.3692 -8.21825
rfingers 7.12502
rthumb 5.98339 -38.1138
lclavicle -3.18055e-015 1.70955e-014
lhumerus -21.6114 -7.42104 83.6534
lradius 42.5784
lwrist 25.6058
lhand -17.5532 15.7573
lfingers 7.12502
lthumb 8.70156 45.558
rfemur -61.6364 -1.1395 15.674
rtibia 107.654
rfoot -6.71802 -11.5882
rtoes -15.8884
lfemur -49.6407 -0.734832 -29.1096
ltibia 70.7888
lfoot -30.1331 8.81506
ltoes -0.472243
1263
root -56.9673 14.607 -5.83027 400.645 87.32 750.479
lowerback 31.041 -0.76167 -0.4173
upperback 7.67159 -0.555682 -1.88607
thorax -8.35299 0.0471545 -1.72599
lowerneck -4.95239 -0.236843 2.3746
upperneck -6.83836 -0.267399 -0.0175413
head -1.28769 -0.128108 -0.39895
rclavicle -1.59028e-015 1.25234e-014
rhumerus -23.1378 6.0484 -86.8898
rradius 50.4255
rwrist -4.22414
rhand -20.3893 -8.23151
rfingers 7.12502
rthumb 5.96401 -38.1276
lclavicle -1.59028e-015 1.25234e-014
lhumerus -21.4799 -7.47499 83.6805
lradius 42.5404
lwrist 25.6521
lhand -17.5898 15.7084
lfingers 7.12502
lthumb 8.66616 45.5105
rfemur -60.9396 -1.35589 15.7219
rtibia 107.657
rfoot -6.1584 -11.6478
rtoes -15.9327
lfemur -49.968 -0.780849 -29.0936
ltibia 70.7668
lfoot -29.7938 8.78493
ltoes -0.524088
1264
root -57.029 14.6065 -5.81868 401.62 87.2936 751.395
lowerback 30.9225 -0.737092 -0.470159
upperback 7.66769 -0.543189 -1.89734
thorax -8.3004 0.0526581 -1.71153
lowerneck -4.96432 -0.243576 2.35447
upperneck -6.79323 -0.277125 -0.0129648
head -1.27151 -0.132631 -0.394105
rclavicle 1.51076e-014 3.53837e-014
rhumerus -23.0614 6.10187 -86.8988
rradius 50.3453
rwrist -4.20823
rhand -20.4221 -8.21355
rfingers 7.12502
rthumb 5.93228 -38.1105
lclavicle 1.51076e-014 3.53837e-014
lhumerus -21.311 -7.53729 83.7137
lradius 42.4297
lwrist 25.7084
lhand -17.6181 15.6794
lfingers 7.12502
lthumb 8.63893 45.4827
rfemur -60.2099 -1.53572 15.7711
rtibia 107.548
rfoot -5.73054 -11.7255
rtoes -15.9423
lfemur -50.3041 -0.808476 -29.0839
ltibia 70.7456
lfoot -29.4548 8.74236
ltoes -0.559471
1265
root -57.0909 14.6047 -5.80661 402.408 87.2663 752.121
lowerback 30.8023 -0.712978 -0.514583
upperback 7.66247 -0.528628 -1.90661
thorax -8.24859 0.0588885 -1.70041
lowerneck -4.99253 -0.249921 2.33313
upperneck -6.73295 -0.287331 -0.0165891
head -1.24791 -0.137223 -0.391551
rclavicle 5.96354e-016 -3.97569e-016
rhumerus -22.9869 6.15532 -86.9064
rradius 50.2649
rwrist -4.18507
rhand -20.4462 -8.20711
rfingers 7.12502
rthumb 5.90904 -38.1047
lclavicle 5.96354e-016 -3.97569e-016
lhumerus -21.1253 -7.61634 83.7504
lradius 42.2808
lwrist 25.7782
lhand -17.6539 15.6152
lfingers 7.12502
lthumb 8.60431 45.4199
rfemur -59.4349 -1.68132 15.8409
rtibia 107.325
rfoot -5.47389 -11.8509
rtoes -15.8477
lfemur -50.6524 -0.818683 -29.0694
ltibia 70.7321
lfoot -29.1117 8.68992
ltoes -0.57834
1266
root -57.153 14.6027 -5.79403 403.22 87.2361 752.868
lowerback 30.6803 -0.687799 -0.557361
upperback 7.65169 -0.512783 -1.91586
thorax -8.20211 0.0654107 -1.69068
lowerneck -5.02062 -0.256253 2.31105
upperneck -6.66839 -0.297807 -0.0248431
head -1.22302 -0.141916 -0.390305
rclavicle 7.7526e-015 7.35503e-015
rhumerus -22.9189 6.19987 -86.9126
rradius 50.18
rwrist -4.1636
rhand -20.4538 -8.20519
rfingers 7.12502
rthumb 5.90167 -38.103
lclavicle 7.7526e-015 7.35503e-015
lhumerus -20.9514 -7.70598 83.7919
lradius 42.147
lwrist 25.8552
lhand -17.6708 15.5577
lfingers 7.12502
lthumb 8.58803 45.363
rfemur -58.6496 -1.78958 15.9126
rtibia 106.998
rfoot -5.33363 -12.0197
rtoes -15.7092
lfemur -51.0091 -0.816209 -29.0582
ltibia 70.7187
lfoot -28.759 8.62293
ltoes -0.58887
1267
root -57.2146 14.6012 -5.78095 404.118 87.2162 753.704
lowerback 30.5604 -0.669621 -0.587403
upperback 7.6416 -0.50169 -1.92545
thorax -8.15614 0.0696224 -1.68697
lowerneck -5.05754 -0.25988 2.30206
upperneck -6.60735 -0.305773 -0.0491647
head -1.19789 -0.14542 -0.396185
rclavicle 1.25234e-014 7.95139e-016
rhumerus -22.8533 6.23283 -86.9217
rradius 50.1
rwrist -4.15295
rhand -20.4389 -8.21475
rfingers 7.12502
rthumb 5.91613 -38.1122
lclavicle 1.25234e-014 7.95139e-016
lhumerus -20.8077 -7.80004 83.8298
lradius 42.0631
lwrist 25.9274
lhand -17.6806 15.4496
lfingers 7.12502
lthumb 8.57854 45.2553
rfemur -57.8135 -1.88311 15.9987
rtibia 106.557
rfoot -5.34953 -12.2441
rtoes -15.4851
lfemur -51.3531 -0.806299 -29.0464
ltibia 70.6942
lfoot -28.3965 8.5379
ltoes -0.59867
1268
root -57.2756 14.6017 -5.76721 405.113 87.2106 754.645
lowerback 30.4559 -0.660984 -0.604435
upperback 7.62677 -0.499199 -1.93651
thorax -8.12315 0.0695872 -1.68951
lowerneck -5.09877 -0.256994 2.31762
upperneck -6.547 -0.306803 -0.0945666
head -1.1724 -0.145769 -0.412608
rclavicle 7.95139e-016 1.39149e-015
rhumerus -22.8028 6.26425 -86.9419
rradius 50.0288
rwrist -4.15127
rhand -20.4221 -8.22772
rfingers 7.12502
rthumb 5.93235 -38.1247
lclavicle 7.95139e-016 1.39149e-015
lhumerus -20.7059 -7.8886 83.861
lradius 42.049
lwrist 25.9922
lhand -17.6649 15.4259
lfingers 7.12502
lthumb 8.59372 45.231
rfemur -56.9569 -1.95738 16.0988
rtibia 106.016
rfoot -5.41477 -12.5111
rtoes -15.3344
lfemur -51.6708 -0.792737 -29.0272
ltibia 70.6478
lfoot -28.0226 8.42841
ltoes -0.601841
